<?xml version="1.0" encoding="utf-8"?>
<!-- Generator: Adobe Illustrator 16.0.0, SVG Export Plug-In . SVG Version: 6.00 Build 0)  -->
<!DOCTYPE svg PUBLIC "-//W3C//DTD SVG 1.1//EN" "http://www.w3.org/Graphics/SVG/1.1/DTD/svg11.dtd">
<svg version="1.1" id="Ebene_1" xmlns="http://www.w3.org/2000/svg" xmlns:xlink="http://www.w3.org/1999/xlink" x="0px" y="0px"
	 width="113.39px" height="113.39px" viewBox="0 0 113.39 113.39" enable-background="new 0 0 113.39 113.39" xml:space="preserve">
<g>
	<path fill-rule="evenodd" clip-rule="evenodd" fill="#F88B11" d="M51.168,92.428c0.042,0.341,0.611,0.431,0.359,0.768
		c-0.198,0.266-0.558,0.059-0.84-0.015c-3.495-0.9-6.989-1.804-10.333-3.195c-0.993-0.413-1.415-1.368-2.085-2.088
		c-0.124-0.133-0.017-0.31,0.013-0.462c0.585-3.015,1.149-6.033,1.82-9.031c0.108-0.482,0.352-0.729,0.812-0.91
		c4.289-1.681,8.566-3.388,12.85-5.082c0.744-0.295,0.756-0.287,1.11,0.493c2.086,4.594,3.921,9.294,5.904,13.932
		c0.108,0.253,0.077,0.446-0.066,0.666c-1.19,1.822-2.378,3.646-3.553,5.477c-0.14,0.218-0.299,0.28-0.54,0.278
		c-1.419-0.007-2.838-0.002-4.257-0.004c-0.192-0.001-0.454,0.049-0.415-0.267C52.026,92.329,51.659,92.316,51.168,92.428z
		 M47.992,89.549c0.195,0.224,0.32,0.423,0.567,0.516C48.682,89.594,48.56,89.39,47.992,89.549z"/>
	<path display="none" fill-rule="evenodd" clip-rule="evenodd" fill="#F88B11" d="M63.775,30.512
		c0.479,0.525,0.435,1.125,0.526,1.69c0.437,2.685-0.032,5.335-0.288,7.994c-0.05,0.517-0.104,1.033-0.171,1.548
		c-0.037,0.295,0.035,0.416,0.37,0.432c1.994,0.101,3.987,0.225,5.981,0.35c0.275,0.017,0.498-0.064,0.724-0.214
		c1.032-0.686,2.076-1.352,3.104-2.042c0.355-0.239,0.441-0.186,0.469,0.246c0.033,0.521-0.124,0.853-0.588,1.118
		c-0.623,0.355-1.191,0.805-1.806,1.179c-0.378,0.231-0.339,0.379-0.022,0.637c0.573,0.466,1.07,1.038,1.678,1.448
		c0.741,0.501,0.907,1.137,0.706,2.016c-1.064-0.897-2.134-1.752-3.145-2.671c-0.532-0.483-1.09-0.726-1.806-0.759
		c-1.936-0.089-3.868-0.227-5.802-0.353c-0.29-0.019-0.536,0.034-0.784,0.202c-0.545,0.37-1.101,0.729-1.675,1.05
		c-0.361,0.203-0.451,0.422-0.333,0.825c0.582,1.995,1.326,3.932,2.021,5.887c1.257,3.534,2.547,7.056,3.782,10.597
		c0.309,0.885,0.707,1.37,1.759,1.395c1.714,0.041,3.423,0.275,5.131,0.463c0.396,0.044,0.614-0.083,0.853-0.374
		c2.485-3.028,4.979-6.05,7.489-9.059c0.281-0.337,0.213-0.529-0.07-0.777c-0.751-0.659-1.493-1.329-2.235-1.998
		c-0.215-0.194-0.039-1.027,0.237-1.099c0.158-0.041,0.242,0.114,0.345,0.2c0.903,0.759,1.805,1.52,2.704,2.282
		c0.154,0.13,0.296,0.246,0.527,0.229c0.181-0.014,0.518-0.314,0.517,0.167c0,0.308,0.249,0.752-0.33,0.85
		c-0.213,0.036-0.345,0.186-0.473,0.342c-2.579,3.133-5.151,6.271-7.746,9.391c-0.296,0.356-0.245,0.567,0.028,0.888
		c2.613,3.078,5.215,6.166,7.812,9.258c0.202,0.241,0.416,0.339,0.721,0.322c0.578-0.031,1.157-0.059,1.735-0.052
		c0.188,0.002,0.568-0.23,0.537,0.174c-0.023,0.303-0.021,0.767-0.528,0.812c-0.597,0.055-1.193,0.111-1.791,0.146
		c-0.286,0.017-0.471,0.139-0.642,0.365c-2,2.647-4.006,5.29-6.021,7.927c-0.17,0.223-0.214,0.364,0.006,0.586
		c0.35,0.355,0.646,0.762,0.99,1.124c0.209,0.22,0.274,0.397-0.032,0.553c-0.253,0.128-0.415,0.649-0.817,0.194
		c-0.305-0.344-0.637-0.663-0.941-1.007c-0.349-0.392-0.749-0.427-1.243-0.316c-3.819,0.849-7.596,1.873-11.409,2.742
		c-0.763,0.174-1.257,0.512-1.653,1.183c-0.805,1.356-1.748,2.632-2.525,4.002c-0.43,0.759-0.998,0.676-1.74,0.619
		c0.374-0.574,0.714-1.082,1.039-1.6c0.796-1.27,1.581-2.545,2.377-3.813c0.253-0.403,0.276-0.793,0.099-1.246
		c-1.861-4.736-3.871-9.41-5.827-14.107c-0.054-0.128-0.117-0.254-0.181-0.378c-0.364-0.704-0.658-0.826-1.393-0.536
		c-3.99,1.576-7.978,3.156-11.964,4.74c-0.593,0.235-1.165,0.524-1.764,0.742c-0.525,0.19-0.801,0.526-0.922,1.068
		c-0.642,2.863-1.227,5.737-1.709,8.632c-0.11,0.663-0.313,1.336,0.23,1.946c-0.702-0.267-1.271-0.713-1.85-1.145
		c-0.073-0.055-0.124-0.158-0.051-0.19c0.579-0.258,0.488-0.836,0.582-1.286c0.566-2.716,1.097-5.439,1.557-8.176
		c0.084-0.502-0.02-0.888-0.392-1.237c-2.709-2.545-5.424-5.083-8.254-7.494c-0.495-0.422-0.946-0.577-1.565-0.286
		c-0.593,0.28-1.23,0.467-1.843,0.708c-0.254,0.1-0.467,0.161-0.531-0.203c-0.047-0.268-0.401-0.567,0.125-0.766
		c0.578-0.218,1.126-0.522,1.712-0.712c0.77-0.248,1.207-0.754,1.494-1.49c0.65-1.674,1.354-3.327,2.02-4.995
		c0.104-0.26,0.154-0.46,0.465-0.201c0.283,0.236,0.402,0.085,0.478-0.212c0.098-0.386,0.119-0.91,0.376-1.102
		c0.239-0.178,0.747,0.041,1.133,0.019c2.852-0.164,5.702-0.343,8.553-0.521c0.718-0.045,1.434-0.139,2.151-0.141
		c0.724-0.002,1.132-0.376,1.423-0.977c1.081-2.227,2.009-4.521,3-6.789c0.799-1.828,1.579-3.665,2.336-5.51
		c0.361-0.879,0.276-1.067-0.504-1.589c-0.665-0.444-1.354-0.849-2.079-1.188c-0.494-0.231-0.968-0.318-1.531-0.126
		c-1.529,0.521-3.079,0.981-4.628,1.439c-0.188,0.056-0.564,0.327-0.589,0.039c-0.027-0.315-0.154-0.841,0.385-1.012
		c0.951-0.301,1.903-0.6,2.854-0.902c0.57-0.182,1.13-0.397,1.708-0.545c0.423-0.108,0.422-0.291,0.277-0.642
		c-0.924-2.232-1.933-4.425-2.958-6.612c-0.074-0.158-0.141-0.373-0.333-0.401c-0.469-0.067-0.426-0.391-0.475-0.738
		c-0.065-0.471,0.006-0.641,0.498-0.434c0.302,0.127,0.413-0.119,0.544-0.326c0.955-1.5,1.92-2.992,2.867-4.497
		c0.187-0.296,0.326-0.469,0.671-0.181c0.27,0.226,0.603,0.3,0.277,0.805c-0.974,1.509-1.866,3.071-2.807,4.602
		c-0.219,0.355-0.263,0.662-0.084,1.057c1.04,2.29,2.102,4.568,3.224,6.819c0.147,0.295,0.34,0.524,0.63,0.693
		c1.069,0.624,2.132,1.259,3.192,1.9c0.218,0.131,0.441,0.167,0.686,0.158c1.956-0.074,3.912-0.187,5.868-0.196
		c0.898-0.004,1.627-0.29,2.414-0.685c1.292-0.647,1.82-1.522,1.905-3.003C63.015,37.119,63.44,33.848,63.775,30.512z
		 M63.174,86.508c-0.074,0.017,0.022-0.006,0.12-0.026c4.161-0.869,8.262-1.994,12.405-2.936c0.21-0.048,0.355-0.152,0.482-0.319
		c2.055-2.705,4.109-5.41,6.176-8.106c0.205-0.268,0.228-0.437-0.005-0.711c-2.678-3.152-5.344-6.316-8.003-9.484
		c-0.194-0.231-0.393-0.352-0.698-0.378c-2.049-0.179-4.098-0.367-6.144-0.573c-0.372-0.037-0.662,0.111-0.958,0.271
		c-3.429,1.848-6.78,3.827-10.091,5.878c-0.387,0.24-0.425,0.458-0.257,0.858c1.344,3.2,2.664,6.41,3.998,9.614
		c0.767,1.842,1.545,3.679,2.324,5.514C62.612,86.316,62.658,86.601,63.174,86.508z M56.336,45.107
		c-1.038,0.066-2.083-0.026-3.111,0.145c-0.409,0.068-0.885,0.145-1.088,0.622c-1.832,4.293-3.769,8.542-5.504,12.877
		c-0.234,0.584-0.128,0.977,0.263,1.394c0.93,0.99,1.833,2.006,2.773,2.987c1.797,1.874,3.542,3.8,5.446,5.571
		c0.381,0.355,0.711,0.386,1.173,0.138c3.045-1.633,6.022-3.381,8.963-5.193c0.569-0.351,0.665-0.713,0.464-1.333
		c-0.98-3.017-2.091-5.987-3.168-8.969c-0.908-2.513-1.744-5.052-2.779-7.52c-0.216-0.516-0.541-0.74-1.094-0.724
		C57.896,45.125,57.115,45.107,56.336,45.107z M39.332,76.082c0.15-0.042,0.346-0.084,0.533-0.15
		c4.64-1.651,9.195-3.524,13.768-5.349c0.876-0.349,0.932-0.594,0.309-1.295c-2.63-2.955-5.382-5.794-8.215-8.556
		c-0.347-0.339-0.741-0.489-1.236-0.484c-1.659,0.017-3.31,0.159-4.962,0.271c-2.17,0.147-4.341,0.294-6.503,0.545
		c-0.474,0.056-0.755,0.273-0.952,0.693c-0.794,1.7-1.499,3.436-2.119,5.206c-0.165,0.471-0.1,0.821,0.264,1.181
		c2.684,2.658,5.483,5.188,8.369,7.624C38.795,75.942,39.025,76.038,39.332,76.082z"/>
	<path fill-rule="evenodd" clip-rule="evenodd" fill="#F88B11" d="M53.957,32.659c-0.088-2.476-0.648-4.799-1.201-7.124
		c-0.032-0.136-0.042-0.283-0.102-0.405c-0.59-1.184-0.283-2.201,0.526-3.162c0.221-0.263,0.372-0.382,0.734-0.273
		c2.042,0.616,4.092,1.208,6.145,1.79c0.317,0.09,0.507,0.25,0.647,0.545c0.739,1.548,1.493,3.088,2.25,4.627
		c0.118,0.241,0.18,0.475,0.153,0.746c-0.303,3.039-0.597,6.079-0.897,9.118c-0.095,0.953-0.219,1.904-0.297,2.858
		c-0.033,0.413-0.203,0.652-0.539,0.912c-1.274,0.982-2.708,1.224-4.268,1.178c-1.375-0.041-2.754,0.039-4.132,0.082
		c-0.394,0.012-0.744-0.059-1.074-0.283c-0.296-0.201-0.601-0.407-0.931-0.54c-1.641-0.661-2.594-1.876-3.194-3.525
		c-0.584-1.607-1.371-3.143-2.099-4.694c-0.159-0.338-0.128-0.566,0.067-0.866c0.904-1.388,1.797-2.783,2.663-4.196
		c0.217-0.354,0.366-0.345,0.673-0.127c1.368,0.971,2.75,1.921,4.129,2.875C53.438,32.351,53.679,32.486,53.957,32.659z"/>
	<path fill-rule="evenodd" clip-rule="evenodd" fill="#F88B11" d="M72.823,62.824c-1.527-0.175-3.054-0.36-4.583-0.519
		c-0.37-0.038-0.493-0.246-0.604-0.553c-1.499-4.146-3.008-8.288-4.512-12.432c-0.456-1.256-0.896-2.518-1.362-3.77
		c-0.141-0.377-0.045-0.556,0.267-0.834c1.33-1.189,2.881-0.797,4.393-0.718c1.037,0.054,2.072,0.148,3.109,0.182
		c0.403,0.013,0.714,0.118,1.021,0.386c1.177,1.022,2.369,2.027,3.57,3.021c0.302,0.25,0.428,0.512,0.431,0.914
		c0.013,1.618,0.078,3.235,0.1,4.853c0.007,0.524,0.104,0.738,0.722,0.609c1.308-0.273,2.4-0.871,3.243-1.892
		c0.276-0.334,0.451-0.333,0.745-0.051c0.504,0.483,1.035,0.939,1.561,1.401c0.243,0.214,0.241,0.404,0.033,0.658
		c-2.292,2.799-4.546,5.629-6.953,8.331C73.667,62.788,73.29,62.884,72.823,62.824z"/>
	<path fill-rule="evenodd" clip-rule="evenodd" fill="#F88B11" d="M40.892,47.775c0.097-0.525,0.246-0.957,0.24-1.386
		c-0.01-0.751,0.388-0.994,1.042-1.18c1.648-0.469,3.275-1.014,4.907-1.541c0.263-0.085,0.487-0.114,0.736,0.045
		c0.689,0.44,1.385,0.871,2.09,1.286c0.334,0.197,0.398,0.4,0.236,0.771c-1.791,4.092-3.567,8.191-5.338,12.292
		c-0.123,0.285-0.252,0.428-0.597,0.447c-2.292,0.125-4.582,0.284-6.872,0.428c-1.415,0.088-2.829,0.176-4.244,0.25
		c-0.586,0.03-0.718-0.127-0.589-0.694c0.75-3.309,0.821-6.646,0.429-10.001c-0.031-0.27,0.019-0.388,0.292-0.471
		c1.83-0.559,3.657-1.128,5.478-1.716c0.269-0.087,0.411,0.027,0.582,0.167C39.792,46.886,40.303,47.298,40.892,47.775z"/>
	<path fill-rule="evenodd" clip-rule="evenodd" fill="#F88B11" d="M83.298,64.609c0.722-0.346,1.192-0.979,1.726-1.533
		c1.496-1.556,2.842-3.244,4.266-4.863c0.127-0.144,0.219-0.515,0.536-0.207c0.276,0.269-0.041,0.376-0.16,0.511
		c-0.837,0.942-0.947,2.129-1.104,3.293c-0.388,2.886-0.584,5.799-1.208,8.65c-0.18,0.817-0.408,1.624-0.598,2.439
		c-0.077,0.333-0.236,0.52-0.596,0.523c-0.64,0.007-1.278,0.024-1.917,0.052c-0.225,0.01-0.367-0.082-0.506-0.247
		c-2.392-2.843-4.826-5.649-7.14-8.558c-0.371-0.466-0.408-0.766,0.002-1.252c2.304-2.734,4.566-5.503,6.845-8.258
		c0.147-0.179,0.309-0.347,0.553-0.621c0.095,1.488,0.019,2.848-0.059,4.207c-0.11,1.953-0.494,3.875-0.684,5.82
		c-0.06,0.025-0.077,0.06-0.019,0.104C83.24,64.671,83.277,64.63,83.298,64.609z"/>
	<path fill-rule="evenodd" clip-rule="evenodd" fill="#F36A1A" d="M13.721,102.929c0-1.64-0.012-3.279,0.008-4.919
		c0.005-0.414-0.06-0.604-0.545-0.594c-1.144,0.022-1.107-0.007-1.159-1.171c-0.026-0.598,0.163-0.727,0.729-0.71
		c1.499,0.042,3,0.027,4.499,0.005c0.394-0.006,0.502,0.108,0.502,0.501c-0.001,1.345,0.015,1.357-1.298,1.379
		c-0.361,0.006-0.488,0.104-0.48,0.477c0.021,1.079,0.017,2.159,0.002,3.239c-0.004,0.301,0.071,0.422,0.398,0.42
		c1.859-0.014,3.719-0.013,5.579-0.001c0.311,0.002,0.416-0.09,0.411-0.405c-0.016-1.1-0.019-2.2,0.001-3.3
		c0.006-0.362-0.148-0.42-0.463-0.428c-1.277-0.031-1.262-0.041-1.275-1.336c-0.004-0.393,0.061-0.557,0.509-0.548
		c1.559,0.029,3.119,0.024,4.679,0.002c0.4-0.006,0.532,0.116,0.491,0.505c-0.045,0.434,0.169,0.979-0.089,1.28
		c-0.248,0.289-0.794,0.094-1.208,0.096c-0.335,0.001-0.392,0.151-0.392,0.44c0.006,3.379,0.009,6.759-0.002,10.138
		c-0.001,0.352,0.128,0.431,0.455,0.439c1.243,0.034,1.221,0.046,1.243,1.317c0.008,0.444-0.102,0.575-0.559,0.566
		c-1.559-0.03-3.12-0.02-4.679-0.005c-0.324,0.003-0.496-0.07-0.439-0.424c0.006-0.039,0.001-0.08,0-0.12
		c-0.011-1.294-0.011-1.304,1.266-1.335c0.316-0.008,0.468-0.067,0.463-0.429c-0.018-1.38-0.016-2.76-0.001-4.14
		c0.003-0.335-0.1-0.45-0.442-0.447c-1.84,0.013-3.679,0.014-5.519-0.001c-0.361-0.003-0.43,0.146-0.427,0.466
		c0.012,1.359,0.017,2.719-0.002,4.079c-0.005,0.375,0.125,0.468,0.483,0.473c1.298,0.021,1.275,0.033,1.298,1.321
		c0.008,0.455-0.121,0.569-0.567,0.562c-1.559-0.028-3.119-0.021-4.679-0.004c-0.361,0.005-0.532-0.088-0.471-0.465
		c0.003-0.02,0.001-0.04,0-0.061c-0.02-1.292-0.021-1.312,1.266-1.351c0.435-0.013,0.417-0.237,0.416-0.534
		C13.719,106.249,13.721,104.589,13.721,102.929z"/>
	<path fill-rule="evenodd" clip-rule="evenodd" fill="#F88B11" d="M37.486,77.336c-0.242,1.276-0.447,2.395-0.666,3.51
		c-0.346,1.762-0.701,3.521-1.054,5.28c-0.044,0.223,0.009,0.54-0.281,0.592c-0.272,0.049-0.52-0.086-0.739-0.305
		c-1.327-1.316-2.446-2.792-3.438-4.37c-2.221-3.534-3.817-7.36-5.266-11.255c-0.111-0.298-0.094-0.456,0.24-0.575
		c0.601-0.214,1.204-0.438,1.768-0.729c0.437-0.226,0.72-0.119,1.049,0.184c2.044,1.88,4.099,3.747,6.152,5.617
		c0.635,0.578,1.278,1.147,1.913,1.727C37.304,77.14,37.509,77.242,37.486,77.336z"/>
	<path fill-rule="evenodd" clip-rule="evenodd" fill="#F36A1A" d="M66.562,102.371c1.246,0.534,2.114,1.335,2.361,2.612
		c0.431,2.22-0.348,3.962-2.463,4.794c-0.921,0.362-1.886,0.522-2.87,0.53c-1.779,0.015-3.559-0.01-5.338,0.015
		c-0.425,0.006-0.533-0.118-0.529-0.535c0.014-1.324-0.005-1.338,1.332-1.346c0.38-0.003,0.516-0.099,0.514-0.5
		c-0.014-3.339-0.014-6.678,0-10.016c0.002-0.396-0.123-0.502-0.51-0.505c-1.438-0.012-1.511-0.123-1.332-1.582
		c0.03-0.249,0.133-0.296,0.341-0.29c2.256,0.065,4.517-0.14,6.769,0.126c0.257,0.03,0.513,0.086,0.761,0.157
		c1.447,0.414,2.446,1.275,2.645,2.833C68.435,100.18,68.058,101.485,66.562,102.371z M61.802,105.939
		c0,0.699,0.007,1.398-0.004,2.097c-0.004,0.259,0.04,0.409,0.352,0.4c0.877-0.022,1.756,0.021,2.626-0.146
		c1.252-0.241,1.908-0.941,1.956-2.124c0.055-1.323-0.527-2.135-1.798-2.449c-0.916-0.227-1.857-0.205-2.795-0.227
		c-0.328-0.008-0.343,0.168-0.34,0.413C61.806,104.582,61.801,105.26,61.802,105.939z M61.802,99.571
		c0,0.577,0.005,1.155-0.003,1.733c-0.003,0.226,0.019,0.375,0.312,0.37c0.757-0.012,1.516,0.021,2.262-0.135
		c0.994-0.207,1.607-0.907,1.642-1.853c0.042-1.174-0.396-1.794-1.5-2.115c-0.802-0.233-1.624-0.111-2.437-0.143
		c-0.263-0.01-0.278,0.151-0.277,0.348C61.804,98.375,61.802,98.972,61.802,99.571z"/>
	<path fill-rule="evenodd" clip-rule="evenodd" fill="#F36A1A" d="M52.321,105.775c-1.219,0-2.438-0.001-3.657,0.001
		c-0.653,0.001-0.681,0.042-0.493,0.684c0.527,1.8,2.276,2.778,4.206,2.361c0.845-0.183,1.6-0.539,2.132-1.23
		c0.271-0.352,0.513-0.354,0.851-0.164c0.19,0.107,0.4,0.18,0.6,0.27c0.759,0.342,0.758,0.342,0.226,0.968
		c-2.665,3.13-8.22,2.567-9.919-1.004c-1.583-3.327,0.311-7.171,3.866-7.848c3.15-0.599,5.867,1.374,6.385,4.636
		c0.21,1.327,0.21,1.327-1.137,1.327C54.359,105.775,53.34,105.775,52.321,105.775z M54.449,104.309
		c-0.061-0.425-0.19-0.737-0.348-1.036c-0.637-1.21-1.94-1.946-3.193-1.812c-1.29,0.139-2.368,1.111-2.723,2.44
		c-0.064,0.24-0.133,0.414,0.239,0.412C50.42,104.304,52.416,104.309,54.449,104.309z"/>
	<path fill-rule="evenodd" clip-rule="evenodd" fill="#F36A1A" d="M95.641,101.184c1.183-0.771,2.296-1.361,3.648-1.321
		c1.298,0.038,2.105,0.628,2.431,1.88c0.11,0.425,0.167,0.859,0.165,1.304c-0.009,1.659,0.009,3.318-0.013,4.977
		c-0.005,0.395,0.108,0.498,0.498,0.496c1.307-0.005,1.292,0.012,1.278,1.329c-0.004,0.366-0.106,0.48-0.475,0.472
		c-0.959-0.024-1.919-0.026-2.878,0.001c-0.374,0.01-0.468-0.102-0.465-0.469c0.018-2.079,0.011-4.157,0.008-6.236
		c-0.003-1.821-0.721-2.308-2.416-1.642c-0.037,0.015-0.073,0.031-0.109,0.047c-1.562,0.655-1.672,0.819-1.672,2.487
		c0,1.18,0.014,2.358-0.009,3.537c-0.007,0.361,0.081,0.474,0.461,0.475c1.39,0.006,1.381,0.022,1.34,1.38
		c-0.009,0.3-0.071,0.421-0.399,0.418c-1.619-0.015-3.238-0.012-4.856-0.002c-0.274,0.002-0.371-0.065-0.387-0.362
		c-0.073-1.416-0.084-1.428,1.34-1.436c0.35-0.002,0.482-0.066,0.479-0.455c-0.021-1.938-0.018-3.878-0.003-5.816
		c0.003-0.343-0.104-0.482-0.441-0.432c-0.02,0.003-0.04,0-0.06,0c-1.441-0.026-1.475-0.075-1.313-1.535
		c0.027-0.244,0.119-0.294,0.333-0.293c1.059,0.007,2.118,0.01,3.178-0.002c0.259-0.003,0.36,0.078,0.342,0.341
		C95.627,100.58,95.641,100.835,95.641,101.184z"/>
	<path fill-rule="evenodd" clip-rule="evenodd" fill="#F88B11" d="M69.035,27.191c0.933,1.343,1.867,2.685,2.797,4.03
		c0.567,0.822,1.101,1.668,1.695,2.469c0.549,0.738,0.778,1.573,0.838,2.456c0.059,0.876,0.032,1.757,0.062,2.636
		c0.01,0.275-0.094,0.442-0.316,0.587c-1.174,0.759-2.343,1.525-3.51,2.294c-0.156,0.104-0.314,0.161-0.504,0.151
		c-1.152-0.059-2.305-0.114-3.512-0.173c0.337-0.658,0.64-1.275,0.965-1.879c1.128-2.093,1.323-4.346,1.238-6.673
		C68.719,31.141,68.789,29.188,69.035,27.191z"/>
	<path fill-rule="evenodd" clip-rule="evenodd" fill="#F88B11" d="M60.07,93.322c1.114-1.733,2.118-3.292,3.117-4.853
		c0.109-0.171,0.27-0.213,0.449-0.257c3.896-0.952,7.792-1.903,11.684-2.874c0.346-0.086,0.568-0.032,0.766,0.251
		c0.103,0.146,0.235,0.271,0.355,0.405c0.661,0.739,0.662,0.741-0.178,1.324c-2.639,1.834-5.49,3.254-8.483,4.406
		c-0.283,0.109-0.69,0.087-0.756,0.552c-0.023,0.163-0.237,0.116-0.367,0.107c-0.553-0.038-1.13,0.012-1.567,0.307
		C63.55,93.733,61.848,93.023,60.07,93.322z"/>
	<path fill-rule="evenodd" clip-rule="evenodd" fill="#F88B11" d="M21.473,55.696c1.237,0.049,2.292,0.438,3.295,0.973
		c1.892,1.01,3.538,2.381,5.275,3.619c0.255,0.182,0.334,0.395,0.199,0.718c-0.78,1.876-1.54,3.76-2.306,5.642
		c-0.078,0.19-0.189,0.34-0.392,0.423c-0.719,0.292-1.441,0.58-2.15,0.896c-0.4,0.177-0.372-0.146-0.438-0.342
		c-0.657-1.964-1.271-3.942-1.824-5.938C22.587,59.712,22.04,57.74,21.473,55.696z"/>
	<path fill-rule="evenodd" clip-rule="evenodd" fill="#F36A1A" d="M77.988,109.173c-0.613,0.381-1.128,0.717-1.703,0.954
		c-0.724,0.299-1.473,0.362-2.234,0.286c-1.008-0.101-1.759-0.766-2.03-1.777c-0.16-0.6-0.222-1.216-0.22-1.838
		c0.003-1.479-0.011-2.959,0.009-4.438c0.005-0.397-0.081-0.564-0.523-0.556c-0.924,0.019-0.925-0.007-0.925-0.961
		c0-0.14,0.014-0.281-0.002-0.419c-0.04-0.338,0.093-0.45,0.437-0.442c0.879,0.022,1.76,0.029,2.639-0.002
		c0.402-0.014,0.452,0.156,0.45,0.494c-0.012,2.139-0.007,4.278-0.004,6.417c0,0.26,0.001,0.522,0.039,0.777
		c0.095,0.628,0.463,0.958,1.094,0.971c1.128,0.021,2.02-0.537,2.867-1.197c0.154-0.12,0.132-0.279,0.132-0.436
		c0.002-1.579-0.01-3.159,0.01-4.738c0.005-0.384-0.135-0.458-0.486-0.461c-1.409-0.014-1.396-0.025-1.347-1.437
		c0.012-0.335,0.133-0.391,0.425-0.387c0.979,0.015,1.96,0.028,2.938-0.005c0.434-0.015,0.524,0.134,0.521,0.54
		c-0.019,2.459,0.006,4.919-0.021,7.377c-0.006,0.5,0.128,0.641,0.625,0.626c1.166-0.034,1.14-0.008,1.177,1.18
		c0.015,0.499-0.115,0.648-0.62,0.622c-0.878-0.045-1.76-0.04-2.639-0.001c-0.474,0.021-0.657-0.12-0.586-0.594
		C78.032,109.579,78,109.42,77.988,109.173z"/>
	<path fill-rule="evenodd" clip-rule="evenodd" fill="#F88B11" d="M59.04,20.697c-1.792-0.517-3.491-1.006-5.188-1.499
		c-0.187-0.054-0.273-0.226-0.381-0.367c-0.81-1.065-1.601-2.146-2.437-3.19c-0.311-0.388-0.41-0.789-0.42-1.262
		C50.547,11.342,51,8.372,51.723,5.433c0.137-0.555,0.643-0.542,1.021-0.692c0.22-0.087,0.171,0.212,0.197,0.344
		c0.272,1.41,0.507,2.828,0.805,4.231c0.384,1.808,1.073,3.492,2.022,5.089C56.958,16.407,57.955,18.516,59.04,20.697z"/>
	<path fill-rule="evenodd" clip-rule="evenodd" fill="#F36A1A" d="M38.966,107.539c0.562-1.47,1.073-2.806,1.583-4.142
		c0.149-0.392,0.287-0.787,0.448-1.173c0.136-0.327,0.026-0.406-0.304-0.416c-0.975-0.03-0.975-0.043-0.975-1.019
		c0-0.8,0-0.8,0.776-0.8c1.259,0,2.519,0.01,3.778-0.007c0.327-0.004,0.499,0.074,0.446,0.43c-0.009,0.059-0.001,0.12-0.001,0.18
		c0.006,1.19,0.006,1.214-1.153,1.21c-0.397-0.001-0.499,0.194-0.612,0.496c-0.949,2.519-1.923,5.027-2.854,7.553
		c-0.166,0.449-0.361,0.608-0.847,0.594c-1.269-0.039-1.267-0.013-1.73-1.209c-0.894-2.305-1.799-4.604-2.681-6.914
		c-0.137-0.36-0.289-0.527-0.715-0.52c-1.389,0.024-1.38,0.002-1.331-1.399c0.011-0.298,0.075-0.423,0.402-0.42
		c1.499,0.015,2.998,0.007,4.497,0.007c0.06,0,0.138-0.022,0.177,0.006c0.53,0.384,0.129,0.936,0.241,1.398
		c0.055,0.228,0,0.407-0.325,0.434c-0.309,0.024-0.761-0.219-0.895,0.146c-0.083,0.229,0.18,0.587,0.293,0.885
		C37.758,104.367,38.333,105.875,38.966,107.539z"/>
	<path fill-rule="evenodd" clip-rule="evenodd" fill="#F36A1A" d="M86.305,102.152c0.147-0.221,0.217-0.313,0.274-0.412
		c0.955-1.662,2.294-1.922,4.098-1.872c0.271,0.007,0.271,0.165,0.271,0.356c-0.003,0.439-0.02,0.88,0.005,1.318
		c0.018,0.333-0.13,0.406-0.425,0.396c-0.621-0.021-1.234,0.044-1.84,0.193c-1.051,0.259-1.627,0.942-1.805,1.993
		c-0.229,1.35-0.098,2.712-0.14,4.067c-0.009,0.287,0.134,0.324,0.366,0.319c0.479-0.01,0.96,0.013,1.438-0.008
		c0.32-0.015,0.451,0.062,0.461,0.423c0.037,1.385,0.052,1.384-1.353,1.384c-1.519,0-3.038-0.013-4.557,0.01
		c-0.394,0.006-0.507-0.104-0.508-0.5c-0.002-1.312-0.018-1.311,1.305-1.312c0.799,0,0.799,0,0.799-0.786
		c0-1.779-0.013-3.558,0.01-5.336c0.006-0.433-0.089-0.632-0.559-0.579c-0.335,0.037-0.679,0.007-1.019,0.007
		c-0.06,0-0.124,0.015-0.179-0.003c-0.755-0.235-0.197-0.838-0.329-1.252c-0.067-0.208-0.16-0.584,0.334-0.575
		c0.999,0.018,1.998,0.016,2.997-0.001c0.312-0.006,0.364,0.13,0.357,0.395C86.295,100.917,86.305,101.458,86.305,102.152z"/>
	<path fill-rule="evenodd" clip-rule="evenodd" fill="#F36A1A" d="M31.039,104.243c0,1.26,0.016,2.521-0.009,3.779
		c-0.008,0.402,0.124,0.499,0.507,0.497c1.062-0.008,1.023,0.012,1.077,1.057c0.031,0.607-0.137,0.775-0.749,0.752
		c-1.338-0.052-2.68-0.031-4.019-0.007c-0.396,0.007-0.55-0.111-0.488-0.5c0.009-0.059,0.001-0.12,0.001-0.18
		c-0.001-1.112-0.001-1.129,1.104-1.122c0.385,0.002,0.511-0.097,0.507-0.497c-0.021-1.9-0.018-3.8-0.002-5.7
		c0.003-0.392-0.121-0.508-0.513-0.508c-1.097,0.002-1.058-0.018-1.112-1.131c-0.028-0.593,0.147-0.745,0.721-0.707
		c0.816,0.054,1.64,0.038,2.458,0.004c0.435-0.019,0.533,0.135,0.525,0.543C31.023,101.762,31.039,103.002,31.039,104.243z"/>
	<path fill-rule="evenodd" clip-rule="evenodd" fill="#F88B11" d="M37.584,24.099c3.279,0.179,5.991,1.684,8.655,3.317
		c0.199,0.122,0.214,0.236,0.088,0.431c-0.936,1.438-1.863,2.881-2.79,4.324c-0.103,0.161-0.206,0.283-0.431,0.225
		c-0.231-0.06-0.367-0.153-0.423-0.418c-0.173-0.821-0.448-1.611-0.809-2.371c-0.844-1.775-2.086-3.249-3.479-4.609
		C38.114,24.724,37.823,24.459,37.584,24.099z"/>
	<path fill-rule="evenodd" clip-rule="evenodd" fill="#F88B11" d="M85.697,75.833c-1.234,2.943-2.901,5.543-5.091,7.802
		c-0.403,0.415-0.831,0.806-1.239,1.217c-0.183,0.185-0.303,0.161-0.487-0.022c-0.924-0.924-0.934-0.921-0.148-1.956
		c1.495-1.972,3.043-3.905,4.469-5.926C83.839,76.043,84.604,75.741,85.697,75.833z"/>
	<path fill-rule="evenodd" clip-rule="evenodd" fill="#F88B11" d="M82.556,42.82c0.206,1.127,0.393,2.101,0.561,3.078
		c0.329,1.907,0.593,3.823,0.753,5.752c0.014,0.16,0.121,0.391-0.073,0.483c-0.17,0.081-0.337-0.076-0.482-0.177
		c-1.003-0.695-1.903-1.518-2.854-2.278c-0.155-0.124-0.232-0.261-0.16-0.465C81.035,47.135,81.767,45.057,82.556,42.82z"/>
	<path fill-rule="evenodd" clip-rule="evenodd" fill="#F88B11" d="M41.703,42.859c0.433-2.646,0.841-5.139,1.25-7.64
		c0.18,0.065,0.208,0.211,0.265,0.331c0.859,1.802,1.659,3.629,2.409,5.479c0.16,0.395,0.093,0.552-0.325,0.676
		C44.138,42.05,42.988,42.443,41.703,42.859z"/>
	<path fill-rule="evenodd" clip-rule="evenodd" fill="#F88B11" d="M30.63,39.33c2.059,1.708,4.051,3.361,6.122,5.08
		c-1.081,0.34-2.092,0.66-3.104,0.976c-1.147,0.359-1.155,0.36-1.443-0.775c-0.388-1.527-0.876-3.021-1.413-4.5
		C30.712,39.892,30.577,39.683,30.63,39.33z"/>
	<path fill-rule="evenodd" clip-rule="evenodd" fill="#F36A1A" d="M28.68,96.509c0.008-0.712,0.538-1.213,1.27-1.199
		c0.677,0.012,1.206,0.545,1.207,1.216c0,0.675-0.583,1.261-1.255,1.261C29.221,97.788,28.672,97.213,28.68,96.509z"/>
	<path fill-rule="evenodd" clip-rule="evenodd" fill="#F88B11" d="M74.47,42.154c0,0.832,0,1.556,0,2.34
		c-0.52-0.331-0.902-0.759-1.329-1.133c-0.139-0.123-0.108-0.235,0.038-0.334C73.586,42.754,73.991,42.479,74.47,42.154z"/>
	<path fill-rule="evenodd" clip-rule="evenodd" fill="#F88B11" d="M52.105,4.196c-0.041-0.287-0.064-0.556,0.26-0.642
		c0.175-0.047,0.274,0.09,0.286,0.223C52.684,4.169,52.277,4.024,52.105,4.196z"/>
	<path display="none" fill-rule="evenodd" clip-rule="evenodd" fill="#FEFEFE" d="M47.992,89.549
		c0.568-0.159,0.69,0.045,0.567,0.516C48.312,89.972,48.187,89.773,47.992,89.549z"/>
	<path display="none" fill-rule="evenodd" clip-rule="evenodd" fill="#FEFEFE" d="M63.174,86.508
		c-0.516,0.093-0.562-0.192-0.649-0.399c-0.779-1.835-1.558-3.672-2.324-5.514c-1.334-3.204-2.654-6.414-3.998-9.614
		c-0.168-0.4-0.13-0.618,0.257-0.858c3.311-2.051,6.662-4.03,10.091-5.878c0.296-0.159,0.586-0.308,0.958-0.271
		c2.046,0.206,4.095,0.395,6.144,0.573c0.306,0.026,0.504,0.146,0.698,0.378c2.659,3.168,5.325,6.332,8.003,9.484
		c0.232,0.274,0.21,0.443,0.005,0.711c-2.066,2.696-4.121,5.401-6.176,8.106c-0.127,0.167-0.272,0.271-0.482,0.319
		c-4.144,0.941-8.244,2.066-12.405,2.936C63.196,86.502,63.1,86.525,63.174,86.508z M81.49,74.678
		c-0.082-0.121-0.141-0.226-0.215-0.316c-2.467-3.044-5.009-6.023-7.665-8.903c-0.158-0.172-0.335-0.25-0.571-0.271
		c-1.612-0.143-3.223-0.295-4.833-0.458c-0.594-0.06-1.131,0.033-1.668,0.322c-3.131,1.688-6.158,3.549-9.199,5.389
		c-0.264,0.159-0.349,0.29-0.217,0.606c2.013,4.803,4.013,9.61,6.007,14.422c0.125,0.302,0.257,0.346,0.573,0.268
		c3.68-0.911,7.364-1.805,11.05-2.695c0.407-0.099,0.736-0.299,0.997-0.617c1.953-2.381,3.794-4.846,5.534-7.386
		C81.36,74.925,81.42,74.801,81.49,74.678z"/>
	<path display="none" fill-rule="evenodd" clip-rule="evenodd" fill="#FEFEFE" d="M56.336,45.107c0.779,0,1.56,0.017,2.338-0.006
		c0.553-0.016,0.878,0.208,1.094,0.724c1.035,2.467,1.871,5.006,2.779,7.52c1.077,2.982,2.188,5.952,3.168,8.969
		c0.201,0.62,0.105,0.982-0.464,1.333c-2.941,1.812-5.918,3.561-8.963,5.193c-0.461,0.248-0.792,0.218-1.173-0.138
		c-1.904-1.771-3.649-3.697-5.446-5.571c-0.94-0.981-1.844-1.997-2.773-2.987c-0.391-0.417-0.497-0.81-0.263-1.394
		c1.736-4.335,3.672-8.583,5.504-12.877c0.204-0.477,0.679-0.554,1.088-0.622C54.252,45.082,55.298,45.173,56.336,45.107z
		 M65.061,62.724c-0.035-0.104-0.07-0.217-0.111-0.329c-1.926-5.388-3.856-10.774-5.768-16.167
		c-0.141-0.397-0.324-0.491-0.728-0.476c-1.616,0.063-3.233,0.094-4.851,0.109c-0.412,0.004-0.643,0.127-0.812,0.521
		c-0.853,1.977-1.748,3.936-2.603,5.912c-0.934,2.159-1.896,4.306-2.75,6.499c-0.19,0.489-0.158,0.852,0.261,1.212
		c0.421,0.363,0.781,0.799,1.167,1.204c2.151,2.253,4.312,4.497,6.444,6.769c0.362,0.387,0.626,0.408,1.046,0.123
		c0.543-0.37,1.133-0.67,1.7-1.005c2.199-1.3,4.398-2.6,6.594-3.906C64.825,63.086,65.075,63.026,65.061,62.724z"/>
	<path display="none" fill-rule="evenodd" clip-rule="evenodd" fill="#FEFEFE" d="M39.332,76.082
		c-0.307-0.044-0.537-0.14-0.745-0.314c-2.886-2.437-5.685-4.966-8.369-7.624c-0.363-0.359-0.429-0.71-0.264-1.181
		c0.621-1.771,1.325-3.506,2.119-5.206c0.197-0.42,0.478-0.638,0.952-0.693c2.162-0.251,4.333-0.397,6.503-0.545
		c1.652-0.111,3.304-0.254,4.962-0.271c0.495-0.005,0.89,0.146,1.236,0.484c2.833,2.762,5.584,5.601,8.215,8.556
		c0.623,0.701,0.567,0.946-0.309,1.295c-4.573,1.824-9.128,3.697-13.768,5.349C39.678,75.998,39.482,76.04,39.332,76.082z
		 M53.399,69.821c-0.165-0.202-0.269-0.349-0.391-0.478c-2.549-2.702-5.103-5.4-7.649-8.104c-0.207-0.22-0.428-0.321-0.735-0.312
		c-3.813,0.127-7.61,0.477-11.41,0.791c-0.301,0.024-0.393,0.217-0.488,0.446c-0.673,1.62-1.344,3.242-2.037,4.854
		c-0.151,0.352-0.097,0.566,0.189,0.826c2.703,2.459,5.396,4.93,8.076,7.414c0.265,0.246,0.473,0.199,0.746,0.091
		c1.5-0.599,3.006-1.185,4.506-1.783C47.26,72.348,50.333,71.171,53.399,69.821z"/>
	<path display="none" fill-rule="evenodd" clip-rule="evenodd" fill="#FEFEFE" d="M83.298,64.609
		c-0.021,0.021-0.058,0.062-0.062,0.061c-0.059-0.044-0.041-0.078,0.019-0.104C83.27,64.58,83.284,64.594,83.298,64.609z"/>
	<path fill-rule="evenodd" clip-rule="evenodd" fill="#F88B11" d="M81.49,74.678c-0.07,0.123-0.13,0.247-0.207,0.359
		c-1.74,2.54-3.581,5.005-5.534,7.386c-0.261,0.318-0.59,0.519-0.997,0.617c-3.686,0.891-7.37,1.784-11.05,2.695
		c-0.316,0.078-0.448,0.034-0.573-0.268c-1.994-4.812-3.994-9.619-6.007-14.422c-0.132-0.316-0.047-0.447,0.217-0.606
		c3.041-1.84,6.068-3.701,9.199-5.389c0.537-0.289,1.074-0.382,1.668-0.322c1.61,0.163,3.221,0.315,4.833,0.458
		c0.236,0.021,0.413,0.1,0.571,0.271c2.656,2.88,5.198,5.859,7.665,8.903C81.35,74.453,81.408,74.557,81.49,74.678z"/>
	<path fill-rule="evenodd" clip-rule="evenodd" fill="#F88B11" d="M65.061,62.724c0.015,0.302-0.235,0.362-0.41,0.466
		c-2.195,1.307-4.395,2.606-6.594,3.906c-0.567,0.335-1.157,0.635-1.7,1.005c-0.419,0.285-0.684,0.264-1.046-0.123
		c-2.132-2.271-4.292-4.516-6.444-6.769c-0.386-0.405-0.746-0.841-1.167-1.204c-0.419-0.36-0.452-0.723-0.261-1.212
		c0.854-2.193,1.816-4.34,2.75-6.499c0.855-1.976,1.75-3.935,2.603-5.912c0.169-0.394,0.4-0.517,0.812-0.521
		c1.617-0.015,3.234-0.046,4.851-0.109c0.403-0.016,0.587,0.079,0.728,0.476c1.911,5.393,3.842,10.779,5.768,16.167
		C64.99,62.507,65.025,62.621,65.061,62.724z"/>
	<path fill-rule="evenodd" clip-rule="evenodd" fill="#F88B11" d="M53.399,69.821c-3.066,1.351-6.139,2.527-9.194,3.746
		c-1.5,0.599-3.005,1.185-4.506,1.783c-0.272,0.108-0.48,0.155-0.746-0.091c-2.68-2.484-5.373-4.955-8.076-7.414
		c-0.286-0.26-0.34-0.475-0.189-0.826c0.693-1.612,1.363-3.234,2.037-4.854c0.096-0.229,0.187-0.422,0.488-0.446
		c3.8-0.314,7.597-0.664,11.41-0.791c0.307-0.01,0.528,0.092,0.735,0.312c2.547,2.704,5.1,5.402,7.649,8.104
		C53.13,69.472,53.234,69.619,53.399,69.821z"/>
</g>
<path fill-rule="evenodd" clip-rule="evenodd" fill="none" d="M48.75,89.64c-0.339-0.226-0.522-0.5-0.499-0.536
	c0.026,0.432-0.043,0.846,0.055,1.267c0.016-0.215,0.219-1.021,0.244-1.455c0.258,0.197,0.538,0.491,0.7,0.725"/>
<rect x="47.327" y="86.728" fill-rule="evenodd" clip-rule="evenodd" fill="#F88B11" width="3.28" height="3.643"/>
<rect x="50.833" y="91.893" fill-rule="evenodd" clip-rule="evenodd" fill="#F88B11" width="1.528" height="1.361"/>
</svg>
